<!--?xml version="1.0" encoding="utf-8"?-->
<!-- Generator: Adobe Illustrator 18.1.1, SVG Export Plug-In . SVG Version: 6.00 Build 0)  -->

<svg version="1.1" id="_x32_" xmlns="http://www.w3.org/2000/svg" xmlns:xlink="http://www.w3.org/1999/xlink" x="0px" y="0px" viewBox="0 0 512 512" style="width: 256px; height: 256px; opacity: 1;" xml:space="preserve">
<style type="text/css">
	.st0{fill:#4B4B4B;}
</style>
<g>
	<path class="st0" d="M174.327,176.911c-14.885,19.698,7.965,37.766-6.92,57.463c-14.878,19.706-37.735,1.646-52.628,21.344
		c-14.876,19.705,7.973,37.765-6.904,57.463c-14.869,19.69-37.734,1.63-52.612,21.32c-14.877,19.698,7.981,37.766-6.904,57.463
		C33.476,411.653,6.82,403.827,0,434.565h61.469L249.535,145.25C215.244,159.343,189.204,157.214,174.327,176.911z" style="fill: rgb(8, 145, 178);"></path>
	<path class="st0" d="M499.446,261.845L347.454,130.319l-18.329-46.454c-1.415-3.536-4.675-6.004-8.465-6.381
		c-3.798-0.377-7.489,1.415-9.541,4.613L84.526,434.565h231.675l38.926-98.489l90.738,18.029c13.9,3.068,28.317-2.275,36.851-13.67
		l22.027-29.354C516.176,295.827,513.87,274.323,499.446,261.845z M357.703,251.558c-9.434,0-17.084-7.643-17.084-17.084
		c0-9.418,7.65-17.076,17.084-17.076c9.433,0,17.076,7.657,17.076,17.076C374.779,243.915,367.136,251.558,357.703,251.558z" style="fill: rgb(8, 145, 178);"></path>
</g>
</svg>
